<svg xmlns="http://www.w3.org/2000/svg" width="589" height="1330" viewBox="0 0 589 1330" role="img" aria-label="npm test — 로직 검증 · 체인 없음 실행 결과">
  <rect width="589" height="1330" rx="12" fill="#17141D"/>
  <rect width="589" height="34" rx="12" fill="#241F2E"/>
  <rect y="22" width="589" height="12" fill="#241F2E"/>
  <circle cx="20" cy="17" r="5" fill="#DD6B5A"/>
  <circle cx="38" cy="17" r="5" fill="#D99245"/>
  <circle cx="56" cy="17" r="5" fill="#3FAE73"/>
  <g font-family="D2Coding, 'JetBrains Mono', Consolas, 'SFMono-Regular', 'Noto Sans KR', monospace" font-size="12">
    <text x="76" y="21" fill="#8E8478">npm test — 로직 검증 · 체인 없음</text>
  </g>
  <g font-family="D2Coding, 'JetBrains Mono', Consolas, 'SFMono-Regular', 'Noto Sans KR', monospace" font-size="13.5" xml:space="preserve">
  <text x="22.0" y="52" fill="#C79A3F" font-weight="600">흥정 밴드 — 값은 모델이 제안하고 하한선은 코드가 강제한다</text>
  <text x="38.3" y="73" fill="#3FAE73" font-weight="700">✅</text><text x="59.5" y="73" fill="#EDE7DA">정가 이상이면 모델을 부르지 않고 수락 구간</text>
  <text x="38.3" y="94" fill="#3FAE73" font-weight="700">✅</text><text x="59.5" y="94" fill="#EDE7DA">하한선 미만이면 모델을 부르지 않고 거절 구간</text>
  <text x="38.3" y="115" fill="#3FAE73" font-weight="700">✅</text><text x="59.5" y="115" fill="#EDE7DA">하한선 정확히 위는 흥정 구간 (경계 포함)</text>
  <text x="38.3" y="136" fill="#3FAE73" font-weight="700">✅</text><text x="59.5" y="136" fill="#EDE7DA">정가 1 wei 아래는 흥정 구간 (경계)</text>
  <text x="38.3" y="157" fill="#3FAE73" font-weight="700">✅</text><text x="59.5" y="157" fill="#EDE7DA">하한선 계산이 bigint로 유지된다 (부동소수 누수 없음)</text>
  <text x="22.0" y="178" fill="#B4A99A"></text>
  <text x="22.0" y="199" fill="#C79A3F" font-weight="600">최종 관문 — 어떤 경로로 온 결정이든 하한선을 넘을 수 없다</text>
  <text x="38.3" y="220" fill="#3FAE73" font-weight="700">✅</text><text x="59.5" y="220" fill="#EDE7DA">모델이 헐값 수락을 반환해도 차단된다</text>
  <text x="38.3" y="241" fill="#3FAE73" font-weight="700">✅</text><text x="59.5" y="241" fill="#EDE7DA">모델이 0원 수락을 반환해도 차단된다</text>
  <text x="38.3" y="262" fill="#3FAE73" font-weight="700">✅</text><text x="59.5" y="262" fill="#EDE7DA">정당한 수락은 통과한다</text>
  <text x="38.3" y="283" fill="#3FAE73" font-weight="700">✅</text><text x="59.5" y="283" fill="#EDE7DA">거절은 언제나 그대로 거절이다</text>
  <text x="22.0" y="304" fill="#B4A99A"></text>
  <text x="22.0" y="325" fill="#C79A3F" font-weight="600">결정론 판단 — 모델이 없을 때의 규칙</text>
  <text x="38.3" y="346" fill="#3FAE73" font-weight="700">✅</text><text x="59.5" y="346" fill="#EDE7DA">하한선과 정가의 중간을 넘으면 수락</text>
  <text x="38.3" y="367" fill="#3FAE73" font-weight="700">✅</text><text x="59.5" y="367" fill="#EDE7DA">중간 미만이면 거절</text>
  <text x="38.3" y="388" fill="#3FAE73" font-weight="700">✅</text><text x="59.5" y="388" fill="#EDE7DA">모든 상인의 하한선에서 결정론 판단이 하한선을 넘지 않는다</text>
  <text x="22.0" y="409" fill="#B4A99A"></text>
  <text x="22.0" y="430" fill="#C79A3F" font-weight="600">주민 데이터 — data/npcs.json</text>
  <text x="38.3" y="451" fill="#3FAE73" font-weight="700">✅</text><text x="59.5" y="451" fill="#EDE7DA">모든 주민에 필수 필드가 있다</text>
  <text x="38.3" y="472" fill="#3FAE73" font-weight="700">✅</text><text x="59.5" y="472" fill="#EDE7DA">id가 중복되지 않는다</text>
  <text x="38.3" y="493" fill="#3FAE73" font-weight="700">✅</text><text x="59.5" y="493" fill="#EDE7DA">주소가 유효한 형식이고 중복되지 않는다</text>
  <text x="38.3" y="514" fill="#3FAE73" font-weight="700">✅</text><text x="59.5" y="514" fill="#EDE7DA">상인은 floorRatio와 stall을 가진다</text>
  <text x="38.3" y="535" fill="#3FAE73" font-weight="700">✅</text><text x="59.5" y="535" fill="#EDE7DA">주민이 마을 반경(55) 안에 산다</text>
  <text x="38.3" y="556" fill="#3FAE73" font-weight="700">✅</text><text x="59.5" y="556" fill="#EDE7DA">walletIndex가 .botwallets.json 주소와 일치한다 (있을 때만)</text>
  <text x="22.0" y="577" fill="#B4A99A"></text>
  <text x="22.0" y="598" fill="#C79A3F" font-weight="600">주야 사이클 — 밤에도 읽을 수 있어야 한다</text>
  <text x="38.3" y="619" fill="#3FAE73" font-weight="700">✅</text><text x="59.5" y="619" fill="#EDE7DA">키프레임을 읽어냈다</text>
  <text x="38.3" y="640" fill="#3FAE73" font-weight="700">✅</text><text x="59.5" y="640" fill="#EDE7DA">주변광이 어느 시각에도 0.3 아래로 내려가지 않는다</text>
  <text x="38.3" y="661" fill="#3FAE73" font-weight="700">✅</text><text x="59.5" y="661" fill="#EDE7DA">햇빛(달빛)이 어느 시각에도 0.3 아래로 내려가지 않는다</text>
  <text x="38.3" y="682" fill="#3FAE73" font-weight="700">✅</text><text x="59.5" y="682" fill="#EDE7DA">한낮이 한밤보다 확실히 밝다</text>
  <text x="38.3" y="703" fill="#3FAE73" font-weight="700">✅</text><text x="59.5" y="703" fill="#EDE7DA">한밤에 등불이 켜지고 한낮에 꺼진다</text>
  <text x="38.3" y="724" fill="#3FAE73" font-weight="700">✅</text><text x="59.5" y="724" fill="#EDE7DA">쇼케이스는 한낮으로 고정된다 (데모 영상 보호)</text>
  <text x="22.0" y="745" fill="#B4A99A"></text>
  <text x="22.0" y="766" fill="#C79A3F" font-weight="600">던전 문 확률 — 컨트랙트·서버·클라이언트가 같은 표를 본다</text>
  <text x="22.0" y="787" fill="#B4A99A">     safe&lt;154 · bonus&lt;192 · trap≥192 (of 256)</text>
  <text x="38.3" y="808" fill="#3FAE73" font-weight="700">✅</text><text x="59.5" y="808" fill="#EDE7DA">세 구현의 경계값이 같다</text>
  <text x="22.0" y="829" fill="#B4A99A">     손익분기 3.59층에서 귀환이 유리해진다</text>
  <text x="38.3" y="850" fill="#3FAE73" font-weight="700">✅</text><text x="59.5" y="850" fill="#EDE7DA">귀환할지 더 오를지가 진짜 선택이다 (탐욕이 늘 옳으면 결정이 아니다)</text>
  <text x="22.0" y="871" fill="#B4A99A"></text>
  <text x="22.0" y="892" fill="#C79A3F" font-weight="600">에셋 0 — 그래픽도 소리도 코드로 만든다</text>
  <text x="38.3" y="913" fill="#3FAE73" font-weight="700">✅</text><text x="59.5" y="913" fill="#EDE7DA">소스 트리에 반입한 이미지·오디오·모델 파일이 없다</text>
  <text x="22.0" y="934" fill="#B4A99A"></text>
  <text x="22.0" y="955" fill="#C79A3F" font-weight="600">HUD — .hud는 pointer-events:none 이라 버튼마다 되살려야 한다</text>
  <text x="22.0" y="976" fill="#B4A99A">     검사한 버튼 클래스: hud-btn, hud-sound</text>
  <text x="38.3" y="997" fill="#3FAE73" font-weight="700">✅</text><text x="59.5" y="997" fill="#EDE7DA">HUD의 &lt;button&gt;에 붙은 클래스가 pointer-events:auto 를 가진다</text>
  <text x="22.0" y="1018" fill="#B4A99A"></text>
  <text x="22.0" y="1039" fill="#C79A3F" font-weight="600">마을 충돌 — 로컬에서만, 배치표 한 곳에서</text>
  <text x="38.3" y="1060" fill="#3FAE73" font-weight="700">✅</text><text x="59.5" y="1060" fill="#EDE7DA">한옥 안으로 걸어 들어가지 못한다</text>
  <text x="38.3" y="1081" fill="#3FAE73" font-weight="700">✅</text><text x="59.5" y="1081" fill="#EDE7DA">분수 안에 들어가지 못한다</text>
  <text x="38.3" y="1102" fill="#3FAE73" font-weight="700">✅</text><text x="59.5" y="1102" fill="#EDE7DA">벽에 비스듬히 부딪히면 미끄러진다 (제자리에 붙지 않는다)</text>
  <text x="38.3" y="1123" fill="#3FAE73" font-weight="700">✅</text><text x="59.5" y="1123" fill="#EDE7DA">상호작용 지점은 막지 않는다</text><text x="264.9" y="1123" fill="#8E8478"> — 모닥불·도깨비·포털에 닿는다</text>
  <text x="38.3" y="1144" fill="#3FAE73" font-weight="700">✅</text><text x="59.5" y="1144" fill="#EDE7DA">첫 등장 자리(0, 5)와 광장이 비어 있다</text>
  <text x="38.3" y="1165" fill="#3FAE73" font-weight="700">✅</text><text x="59.5" y="1165" fill="#EDE7DA">마을 밖으로 나가지 못한다</text>
  <text x="38.3" y="1186" fill="#3FAE73" font-weight="700">✅</text><text x="59.5" y="1186" fill="#EDE7DA">노점은 열려 있을 때만 막는다 (닫히면 유령 벽이 남지 않는다)</text>
  <text x="22.0" y="1207" fill="#B4A99A">     콜라이더 38개 (한옥 6채 포함)</text>
  <text x="38.3" y="1228" fill="#3FAE73" font-weight="700">✅</text><text x="59.5" y="1228" fill="#EDE7DA">그리는 쪽(Village.tsx)이 같은 배치표를 읽는다</text>
  <text x="22.0" y="1249" fill="#B4A99A"></text>
  <text x="22.0" y="1270" fill="#392F44">──────────────────────────────────────────────────</text>
  <text x="22.0" y="1291" fill="#3FAE73" font-weight="700">전부 통과 (36건) · 가스 0</text>
  </g>
</svg>
